<?xml version="1.0" standalone="no"?><!DOCTYPE svg PUBLIC "-//W3C//DTD SVG 1.1//EN" "http://www.w3.org/Graphics/SVG/1.1/DTD/svg11.dtd"><svg t="1774000931796" class="icon" viewBox="0 0 1024 1024" version="1.1" xmlns="http://www.w3.org/2000/svg" p-id="36570" xmlns:xlink="http://www.w3.org/1999/xlink" width="32" height="32"><path d="M794.978462 118.153846H233.629538C151.355077 118.153846 78.769231 192 78.769231 275.692308v467.692307C78.769231 832 151.355077 905.846154 233.629538 905.846154h556.504616c87.118769 0 154.860308-73.846154 154.860308-157.538462V275.692308c4.844308-83.692308-67.741538-157.538462-150.016-157.538462zM866.461538 741.139692C866.461538 788.873846 828.888615 827.076923 781.942154 827.076923H242.057846C195.111385 827.076923 157.538462 788.873846 157.538462 741.139692V282.860308C157.538462 235.126154 195.111385 196.923077 242.057846 196.923077h539.884308C828.888615 196.923077 866.461538 235.126154 866.461538 282.860308v458.279384z" fill="#000000" p-id="36571"></path><path d="M367.104 359.227077h-34.461538c-19.692308 0-39.384615 14.336-39.384616 38.203077s19.692308 33.398154 39.384616 33.398154h34.461538c19.692308 0 39.384615-14.296615 39.384615-38.203077 0-23.827692-19.692308-33.398154-39.384615-33.398154z m0 233.944615h-34.461538c-19.692308 0-39.384615 14.296615-39.384616 38.203077 0 23.827692 14.769231 38.163692 39.384616 38.163693h34.461538c19.692308 0 39.384615-14.336 39.384615-38.203077s-19.692308-38.203077-39.384615-38.203077z m196.923077-162.343384c19.692308 0 39.384615-14.296615 39.384615-38.203077 0-23.827692-14.769231-38.163692-39.384615-38.163693h-34.461539c-19.692308 0-39.384615 14.336-39.384615 38.203077s19.692308 38.203077 39.384615 38.203077h34.461539z m162.461538-71.601231c-19.692308 0-39.384615 14.336-39.384615 38.203077v195.741538h-128c-19.692308 0-39.384615 14.296615-39.384615 38.203077 0 23.827692 14.769231 38.163692 39.384615 38.163693h167.384615c19.692308 0 39.384615-14.336 39.384616-38.203077v-233.944616c0-19.062154-19.692308-38.163692-39.384616-38.163692z" fill="#000000" p-id="36572"></path></svg>