<?xml version="1.0" standalone="no"?><!DOCTYPE svg PUBLIC "-//W3C//DTD SVG 1.1//EN" "http://www.w3.org/Graphics/SVG/1.1/DTD/svg11.dtd"><svg t="1774000905677" class="icon" viewBox="0 0 1024 1024" version="1.1" xmlns="http://www.w3.org/2000/svg" p-id="35544" xmlns:xlink="http://www.w3.org/1999/xlink" width="32" height="32"><path d="M512 51.2c254.498133 0 460.8 206.301867 460.8 460.8S766.498133 972.8 512 972.8 51.2 766.498133 51.2 512 257.501867 51.2 512 51.2z m0 68.266667C295.2192 119.466667 119.466667 295.2192 119.466667 512S295.2192 904.533333 512 904.533333 904.533333 728.7808 904.533333 512 728.7808 119.466667 512 119.466667z m-51.882667 163.9424l61.098667 30.5152L439.1936 477.866667h200.772267a34.133333 34.133333 0 0 1 32.085333 45.7728l-1.570133 3.618133-106.666667 213.333333-61.0304-30.5152L584.704 546.133333H384a34.133333 34.133333 0 0 1-32.085333-45.7728l1.570133-3.618133 106.666667-213.333333z" fill="#000000" p-id="35545"></path></svg>