<?xml version="1.0" standalone="no"?><!DOCTYPE svg PUBLIC "-//W3C//DTD SVG 1.1//EN" "http://www.w3.org/Graphics/SVG/1.1/DTD/svg11.dtd"><svg t="1774000467174" class="icon" viewBox="0 0 1024 1024" version="1.1" xmlns="http://www.w3.org/2000/svg" p-id="7884" xmlns:xlink="http://www.w3.org/1999/xlink" width="32" height="32"><path d="M800 479.78v384H224v-384h576m39.68-96H184.32c-31.11 0-56.32 25.21-56.32 56.32v463.36c0 31.11 25.21 56.32 56.32 56.32h655.36c31.11 0 56.32-25.21 56.32-56.32V440.1c0-31.11-25.21-56.32-56.32-56.32zM752.02 383.77h-96v-64c0-79.41-64.62-144-144-144s-144 64.59-144 144v64h-96v-64c0-132.34 107.69-240 240-240s240 107.66 240 240v64z" fill="#131414" p-id="7885"></path><path d="M512.02 783.77c-26.5 0-48-21.5-48-48v-128c0-26.5 21.5-48 48-48s48 21.5 48 48v128c0 26.5-21.5 48-48 48z" fill="#131414" p-id="7886"></path></svg>