<?xml version="1.0" standalone="no"?><!DOCTYPE svg PUBLIC "-//W3C//DTD SVG 1.1//EN" "http://www.w3.org/Graphics/SVG/1.1/DTD/svg11.dtd"><svg t="1774000431889" class="icon" viewBox="0 0 1024 1024" version="1.1" xmlns="http://www.w3.org/2000/svg" p-id="6715" xmlns:xlink="http://www.w3.org/1999/xlink" width="32" height="32"><path d="M511.914667 85.333333c-235.52 0-426.666667 191.146667-426.666667 426.666667s191.146667 426.666667 426.666667 426.666667 426.666667-191.146667 426.666666-426.666667-191.146667-426.666667-426.666666-426.666667z m0 768c-188.586667 0-341.333333-152.746667-341.333334-341.333333s152.746667-341.333333 341.333334-341.333333 341.333333 152.746667 341.333333 341.333333-152.746667 341.333333-341.333333 341.333333z" p-id="6716"></path><path d="M512 640c-35.2 0-64 28.8-64 64S476.8 768 512 768s64-28.8 64-64S547.2 640 512 640z" p-id="6717"></path><path d="M512 256c-36.906667 0-66.176 29.269333-63.872 63.872l15.616 234.88c1.621333 23.936 22.741333 42.581333 48.256 42.581333s46.634667-18.645333 48.213333-42.581333l15.658667-234.88C578.176 285.269333 548.906667 256 512 256z" p-id="6718"></path></svg>