<?xml version="1.0" standalone="no"?><!DOCTYPE svg PUBLIC "-//W3C//DTD SVG 1.1//EN" "http://www.w3.org/Graphics/SVG/1.1/DTD/svg11.dtd"><svg t="1774025237093" class="icon" viewBox="0 0 1024 1024" version="1.1" xmlns="http://www.w3.org/2000/svg" p-id="5574" xmlns:xlink="http://www.w3.org/1999/xlink" width="32" height="32"><path d="M592 272c0-44.004-35.996-80-80-80s-80 35.996-80 80 35.996 80 80 80S592 316.004 592 272zM592 752c0-44.004-35.996-80-80-80s-80 35.996-80 80 35.996 80 80 80S592 796.004 592 752zM592 512c0-44.004-35.996-80-80-80s-80 35.996-80 80 35.996 80 80 80S592 556.004 592 512z" fill="#272636" p-id="5575"></path></svg>