<svg t="1774090104882" class="icon" viewBox="0 0 1024 1024" version="1.1" xmlns="http://www.w3.org/2000/svg" p-id="9382" width="32" height="32"><path d="M977.454545 93.090909v837.818182a93.090909 93.090909 0 0 1-93.090909 93.090909H139.636364a93.090909 93.090909 0 0 1-93.090909-93.090909V93.090909a93.090909 93.090909 0 0 1 93.090909-93.090909h744.727272a93.090909 93.090909 0 0 1 93.090909 93.090909zM884.363636 93.090909H139.636364V930.909091h744.727272V93.090909z m-187.578181 477.277091a46.452364 46.452364 0 0 1 41.704727 67.211636l-2.792727 4.794182-3.49091 4.701091-88.15709 104.029091a46.545455 46.545455 0 0 1-74.519273-55.482182l3.490909-4.654545 23.365818-27.648H324.421818a46.498909 46.498909 0 1 1 0-92.951273h372.363637z m-253.998546-302.545455a46.545455 46.545455 0 0 1 8.936727 60.928l-3.490909 4.654546-23.412363 27.648h272.011636a46.498909 46.498909 0 1 1 0 92.951273H324.421818a46.452364 46.452364 0 0 1-41.658182-67.211637l2.792728-4.794182 3.490909-4.70109 88.157091-104.029091a46.545455 46.545455 0 0 1 65.629091-5.445819z" fill="#303133" p-id="9383"></path></svg>